<svg width="69" height="66" viewBox="0 0 69 66" fill="none" xmlns="http://www.w3.org/2000/svg">
<path d="M34.0773 43.4684C34.2404 43.8789 34.2371 44.3299 34.0681 44.7384L31.5631 50.7931C31.4418 51.0865 31.2399 51.3458 30.9771 51.5459L29.9362 52.3385L27.6231 52.5323C26.822 52.5995 26.1511 53.11 25.8878 53.8099C24.657 57.0815 22.894 59.8641 20.5989 62.1577C18.0357 64.7192 14.8775 66 11.1243 66C9.11037 66 6.70739 65.5324 3.91536 64.5973C2.7492 64.1897 1.72677 63.7786 0.848062 63.3639C-0.505665 62.7251 -0.153641 61.1257 1.30126 60.7168C4.56824 59.7987 8.02567 58.7339 11.6735 57.5225C16.3025 55.9615 20.0285 54.5252 22.8513 53.2138C23.2184 53.0432 23.514 52.767 23.7002 52.4295L26.9153 46.6055C27.6019 45.3857 28.2884 44.5725 28.975 44.166C29.6616 43.7187 30.8058 43.4138 32.4078 43.2511L33.9183 43.0682L34.0773 43.4684Z" fill="#0FA971"/>
<path d="M48.6022 9.85526C48.6988 9.75644 48.8073 9.66899 48.9258 9.59299C53.9436 6.37512 59.7883 3.24201 66.46 0.193664C67.9665 -0.494682 69.5413 0.767186 68.8192 2.16574C68.0681 3.62037 67.1363 5.03072 66.0238 6.3968C65.8181 6.64932 65.5392 6.84303 65.2226 6.96409C58.0267 9.71595 51.4932 12.6149 45.6219 15.6609C45.3201 15.8174 44.9414 15.7665 44.702 15.5361V15.5361C44.4583 15.3016 44.4229 14.9426 44.6193 14.6731C46.0385 12.7253 47.3662 11.1193 48.6022 9.85526ZM41.6692 18.1232C42.6394 17.3729 44.0014 17.8535 44.1906 19.0071C44.329 19.851 44.4521 20.8577 44.56 22.027C44.972 26.1742 45.1779 30.4028 45.1779 34.7127C45.1779 38.372 45.0635 40.6083 44.8347 41.4215C43.4408 45.1746 41.9434 47.9704 40.3424 49.8089C40.1832 49.9917 39.9825 50.1386 39.7535 50.2406C37.3951 51.2905 34.1227 51.9898 29.9362 52.3385L33.9183 43.0682C34.7882 43.0109 35.9076 42.8932 37.2765 42.7151C38.3186 42.5795 39.0479 41.701 38.9185 40.7393C38.2794 35.987 37.2709 30.7426 35.893 25.0059C35.7732 24.507 35.8824 23.9825 36.2118 23.5713C37.2297 22.3004 38.3647 21.0741 39.6168 19.8924C40.3279 19.2212 41.012 18.6314 41.6692 18.1232Z" fill="#0FA971"/>
<path d="M56.2039 28.2666C57.1427 27.6055 58.4777 27.9324 58.9144 28.9711C60.3049 32.2779 61.0001 35.3313 61.0001 38.1314C61.0001 38.7532 60.9832 39.2367 60.9494 39.5822C60.9494 40.3075 60.5614 41.5165 59.7854 43.209C59.1263 44.6811 58.3342 45.9762 57.4091 47.0943C57.1817 47.3692 56.8654 47.5608 56.5131 47.6517C53.1002 48.5329 49.5028 49.0887 45.7207 49.3191C44.4399 49.3972 43.5185 48.1879 43.9301 47.0158L45.4417 42.711C45.696 41.9866 46.401 41.5002 47.1941 41.494C49.3525 41.4773 51.4976 41.4195 53.6294 41.3208C54.8609 41.2638 55.6694 40.0707 55.1594 38.9883C54.3082 37.1816 53.2325 35.3437 51.9323 33.4748C51.3647 32.6589 51.5431 31.549 52.366 30.9695L56.2039 28.2666ZM53.7459 25.1348C53.0669 25.5899 52.1476 25.5619 51.5901 24.9731C51.0297 24.3812 50.4694 23.665 49.909 22.8243C49.3977 22.0572 49.6412 21.0485 50.4131 20.5217L52.5998 19.0293C53.2233 18.6038 54.0913 18.7884 54.4712 19.4273C54.9443 20.2231 55.3793 20.9235 55.7763 21.5286C56.3354 22.3808 56.1383 23.5312 55.2795 24.1068L53.7459 25.1348Z" fill="#0FA971"/>
</svg>
